<svg width="1728" height="1037" viewBox="0 0 1728 1037" fill="none" xmlns="http://www.w3.org/2000/svg">
<path fill-rule="evenodd" clip-rule="evenodd" d="M86.3244 518.803H0.302186V604.825H77.4125L86.3244 595.913V518.803ZM95.4741 604.825L86.6771 596.028V518.803H172.699V604.825H95.4741ZM86.6771 613.844L95.343 605.178H172.699V691.2H86.6771V613.844ZM77.5436 605.178L86.3244 613.959V691.2H0.302186V605.178H77.5436ZM0 518.501V604.876V605.127V691.25V691.502V777.625V777.877V864V864.252V950.375V950.627V1037H86.3749H86.6266H172.75H173.002H259.124H259.376H345.499H345.751H431.874H432.126H518.249H518.501H604.624H604.875H690.998H691.25H777.373H777.625H864L864 950.627V864.252V864V777.625V691.502V605.127V604.876V518.501H777.625H777.373H691.25H690.998H604.875H604.624H518.501H518.249H432.126H431.874H345.751H345.499H259.376H259.124H173.002H172.75H86.6266H86.3749H0ZM173.052 518.803H259.074V604.825H173.052V518.803ZM345.449 518.803H259.427V604.825H345.449V518.803ZM345.801 518.803H431.824V604.825H345.801V518.803ZM518.198 518.803H432.176V604.825H518.198V518.803ZM518.551 518.803H604.573V604.825H518.551V518.803ZM690.948 518.803H604.926V604.825H690.948V518.803ZM691.3 518.803H777.323V604.825H691.3V518.803ZM863.698 518.803H777.676V604.825H863.698V518.803ZM173.052 605.178H259.074V691.2H173.052V605.178ZM345.449 605.178H259.427V691.2H336.796L345.449 682.548V605.178ZM354.316 691.2L345.801 682.686V605.178H431.824V691.2H354.316ZM345.801 700.478L354.697 691.582L354.668 691.553H431.824V777.575H345.801V700.478ZM336.444 691.553L336.414 691.582L345.449 700.616V777.575H259.427V691.553H336.444ZM518.198 605.178H432.176V691.2H518.198V605.178ZM518.551 605.178H604.573V691.2H518.551V605.178ZM690.948 605.178H604.926V691.2H690.948V605.178ZM691.3 605.178H777.323V667.335L777.177 667.481L753.457 691.2H691.3V605.178ZM753.105 691.553H691.301V769.1L691.59 768.811L700.353 777.575H777.323V715.829L777.177 715.683L753.309 691.815L753.076 691.582L753.105 691.553ZM777.323 715.363L753.542 691.582L753.572 691.553H768.298L768.269 691.582L777.323 700.636V715.363ZM777.675 715.651V777.575H863.698V691.553H801.715L801.745 691.582L801.511 691.815L777.675 715.651ZM801.249 691.553L801.278 691.582L777.675 715.185V700.458L786.552 691.582L786.522 691.553H801.249ZM801.363 691.2H863.698V605.178H777.676V667.513L801.363 691.2ZM777.676 667.98L800.896 691.2H786.17L777.676 682.706V667.98ZM777.323 667.802L753.924 691.2H768.651L777.323 682.528V667.802ZM691.3 786.805L691.59 787.094L700.731 777.953L700.706 777.927H777.323V863.95H691.3V786.805ZM682.473 777.927L682.448 777.953L690.948 786.453V863.95H604.926V777.927H682.473ZM690.948 769.453L682.826 777.575H604.926V691.553H690.948V769.453ZM0.302186 691.553H86.3244V777.575H0.302186V691.553ZM172.699 691.553H86.6771V777.575H172.699V691.553ZM173.052 691.553H259.074V777.575H173.052V691.553ZM518.199 691.553H432.176V777.575H518.199V691.553ZM518.551 691.553H604.573V777.575H518.551V691.553ZM0.302186 777.927H86.3244V863.95H0.302186V777.927ZM172.699 777.927H86.6771V863.95H148.931L148.819 863.838L149.052 863.604L172.699 839.957V777.927ZM172.699 840.424L149.286 863.838L149.398 863.95H164.124L164.012 863.838L172.699 855.151V840.424ZM173.052 854.798V840.072L173.154 839.97L197.021 863.838L196.91 863.95H182.183L182.295 863.838L173.154 854.696L173.052 854.798ZM173.052 872.877L173.154 872.979L181.831 864.302H196.557L173.154 887.706L173.052 887.604V872.877ZM164.477 864.302L172.699 872.525V887.251L149.75 864.302H164.477ZM149.284 864.302H86.6771V950.324H172.699V887.718L149.284 864.302ZM173.052 888.07V950.324H259.074V864.302H197.024L173.387 887.939L173.154 888.172L173.052 888.07ZM197.376 863.95H259.074V777.927H173.052V839.605L173.154 839.503L173.387 839.737L197.255 863.604L197.488 863.838L197.376 863.95ZM345.449 777.927H259.427V863.95H345.449V777.927ZM345.801 777.927H431.824V863.95H345.801V777.927ZM518.198 777.927H432.176V863.95H518.198V777.927ZM518.551 777.927H604.573V863.95H518.551V777.927ZM863.698 777.927H777.676V863.95H863.698V777.927ZM0.302186 864.302H86.3244V950.324H0.302186V864.302ZM345.449 864.302H259.427V950.324H345.449V864.302ZM345.801 864.302H431.824V950.324H345.801V864.302ZM518.198 864.302H432.176V950.324H518.198V864.302ZM518.551 864.302H604.573V950.324H518.551V864.302ZM690.948 864.302H604.926V950.324H690.948V864.302ZM691.3 864.302H777.323V950.324H691.3V864.302ZM863.698 864.302H777.676V950.324H863.698V864.302ZM0.302186 950.677H86.3244V1036.7H0.302186V950.677ZM172.699 950.677H86.6771V1036.7H172.699V950.677ZM173.052 950.677H259.074V1036.7H173.052V950.677ZM345.449 950.677H259.427V1036.7H345.449V950.677ZM345.801 950.677H431.824V1036.7H345.801V950.677ZM518.198 950.677H432.176V1036.7H518.198V950.677ZM518.551 950.677H604.573V1036.7H518.551V950.677ZM690.948 950.677H604.926V1036.7H690.948V950.677ZM691.3 950.677H777.323V1036.7H691.3V950.677ZM863.698 950.677H777.675V1036.7H863.698V950.677Z" fill="url(#paint0_radial_977_815)" fill-opacity="0.6"/>
<path fill-rule="evenodd" clip-rule="evenodd" d="M950.324 518.803H864.302V604.825H941.413L950.324 595.913V518.803ZM959.474 604.825L950.677 596.028V518.803H1036.7V604.825H959.474ZM950.677 613.844L959.343 605.178H1036.7V691.2H950.677V613.844ZM941.544 605.178L950.324 613.959V691.2H864.302V605.178H941.544ZM864 518.501V604.876V605.127V691.25V691.502V777.625V777.877V864V864.252V950.375V950.627V1037H950.375H950.627H1036.75H1037H1123.12H1123.38H1209.5H1209.75H1295.87H1296.13H1382.25H1382.5H1468.62H1468.88H1555H1555.25H1641.37H1641.62H1728L1728 950.627V864.252V864V777.625V691.502V605.127V604.876V518.501H1641.62H1641.37H1555.25H1555H1468.88H1468.62H1382.5H1382.25H1296.13H1295.87H1209.75H1209.5H1123.38H1123.12H1037H1036.75H950.627H950.375H864ZM1037.05 518.803H1123.07V604.825H1037.05V518.803ZM1209.45 518.803H1123.43V604.825H1209.45V518.803ZM1209.8 518.803H1295.82V604.825H1209.8V518.803ZM1382.2 518.803H1296.18V604.825H1382.2V518.803ZM1382.55 518.803H1468.57V604.825H1382.55V518.803ZM1554.95 518.803H1468.93V604.825H1554.95V518.803ZM1555.3 518.803H1641.32V604.825H1555.3V518.803ZM1727.7 518.803H1641.68V604.825H1727.7V518.803ZM1037.05 605.178H1123.07V691.2H1037.05V605.178ZM1209.45 605.178H1123.43V691.2H1200.8L1209.45 682.548V605.178ZM1218.32 691.2L1209.8 682.686V605.178H1295.82V691.2H1218.32ZM1209.8 700.478L1218.7 691.582L1218.67 691.553H1295.82V777.575H1209.8V700.478ZM1200.44 691.553L1200.41 691.582L1209.45 700.616V777.575H1123.43V691.553H1200.44ZM1382.2 605.178H1296.18V691.2H1382.2V605.178ZM1382.55 605.178H1468.57V691.2H1382.55V605.178ZM1554.95 605.178H1468.93V691.2H1554.95V605.178ZM1555.3 605.178H1641.32V667.335L1641.18 667.481L1617.46 691.2H1555.3V605.178ZM1617.11 691.553H1555.3V769.1L1555.59 768.811L1564.35 777.575H1641.32V715.829L1641.18 715.683L1617.31 691.815L1617.08 691.582L1617.11 691.553ZM1641.32 715.363L1617.54 691.582L1617.57 691.553H1632.3L1632.27 691.582L1641.32 700.636V715.363ZM1641.68 715.651V777.575H1727.7V691.553H1665.72L1665.74 691.582L1665.51 691.815L1641.68 715.651ZM1665.25 691.553L1665.28 691.582L1641.68 715.185V700.458L1650.55 691.582L1650.52 691.553H1665.25ZM1665.36 691.2H1727.7V605.178H1641.68V667.513L1665.36 691.2ZM1641.68 667.98L1664.9 691.2H1650.17L1641.68 682.706V667.98ZM1641.32 667.802L1617.92 691.2H1632.65L1641.32 682.528V667.802ZM1555.3 786.805L1555.59 787.094L1564.73 777.953L1564.71 777.927H1641.32V863.95H1555.3V786.805ZM1546.47 777.927L1546.45 777.953L1554.95 786.453V863.95H1468.93V777.927H1546.47ZM1554.95 769.453L1546.83 777.575H1468.93V691.553H1554.95V769.453ZM864.302 691.553H950.324V777.575H864.302V691.553ZM1036.7 691.553H950.677V777.575H1036.7V691.553ZM1037.05 691.553H1123.07V777.575H1037.05V691.553ZM1382.2 691.553H1296.18V777.575H1382.2V691.553ZM1382.55 691.553H1468.57V777.575H1382.55V691.553ZM864.302 777.927H950.324V863.95H864.302V777.927ZM1036.7 777.927H950.677V863.95H1012.93L1012.82 863.838L1013.05 863.604L1036.7 839.957V777.927ZM1036.7 840.424L1013.29 863.838L1013.4 863.95H1028.12L1028.01 863.838L1036.7 855.151V840.424ZM1037.05 854.798V840.072L1037.15 839.97L1061.02 863.838L1060.91 863.95H1046.18L1046.3 863.838L1037.15 854.696L1037.05 854.798ZM1037.05 872.877L1037.15 872.979L1045.83 864.302H1060.56L1037.15 887.706L1037.05 887.604V872.877ZM1028.48 864.302L1036.7 872.525V887.251L1013.75 864.302H1028.48ZM1013.28 864.302H950.677V950.324H1036.7V887.718L1013.28 864.302ZM1037.05 888.07V950.324H1123.07V864.302H1061.02L1037.39 887.939L1037.15 888.172L1037.05 888.07ZM1061.38 863.95H1123.07V777.927H1037.05V839.605L1037.15 839.503L1037.39 839.737L1061.25 863.604L1061.49 863.838L1061.38 863.95ZM1209.45 777.927H1123.43V863.95H1209.45V777.927ZM1209.8 777.927H1295.82V863.95H1209.8V777.927ZM1382.2 777.927H1296.18V863.95H1382.2V777.927ZM1382.55 777.927H1468.57V863.95H1382.55V777.927ZM1727.7 777.927H1641.68V863.95H1727.7V777.927ZM864.302 864.302H950.324V950.324H864.302V864.302ZM1209.45 864.302H1123.43V950.324H1209.45V864.302ZM1209.8 864.302H1295.82V950.324H1209.8V864.302ZM1382.2 864.302H1296.18V950.324H1382.2V864.302ZM1382.55 864.302H1468.57V950.324H1382.55V864.302ZM1554.95 864.302H1468.93V950.324H1554.95V864.302ZM1555.3 864.302H1641.32V950.324H1555.3V864.302ZM1727.7 864.302H1641.68V950.324H1727.7V864.302ZM864.302 950.677H950.324V1036.7H864.302V950.677ZM1036.7 950.677H950.677V1036.7H1036.7V950.677ZM1037.05 950.677H1123.07V1036.7H1037.05V950.677ZM1209.45 950.677H1123.43V1036.7H1209.45V950.677ZM1209.8 950.677H1295.82V1036.7H1209.8V950.677ZM1382.2 950.677H1296.18V1036.7H1382.2V950.677ZM1382.55 950.677H1468.57V1036.7H1382.55V950.677ZM1554.95 950.677H1468.93V1036.7H1554.95V950.677ZM1555.3 950.677H1641.32V1036.7H1555.3V950.677ZM1727.7 950.677H1641.68V1036.7H1727.7V950.677Z" fill="url(#paint1_radial_977_815)" fill-opacity="0.6"/>
<path fill-rule="evenodd" clip-rule="evenodd" d="M1641.68 518.199L1727.7 518.199L1727.7 432.177L1650.59 432.177L1641.68 441.088L1641.68 518.199ZM1632.53 432.177L1641.32 440.974L1641.32 518.199L1555.3 518.199L1555.3 432.177L1632.53 432.177ZM1641.32 423.158L1632.66 431.824L1555.3 431.824L1555.3 345.802L1641.32 345.802L1641.32 423.158ZM1650.46 431.824L1641.68 423.043L1641.68 345.802L1727.7 345.802L1727.7 431.824L1650.46 431.824ZM1728 518.501L1728 432.126L1728 431.874L1728 345.752L1728 345.499L1728 259.377L1728 259.125L1728 173.002L1728 172.75L1728 86.6269L1728 86.3751L1728 0.00026489L1641.63 0.000257339L1641.37 0.000257317L1555.25 0.000249788L1555 0.000249766L1468.88 0.000242237L1468.62 0.000242215L1382.5 0.000234686L1382.25 0.000234664L1296.13 0.000227135L1295.87 0.000227113L1209.75 0.000219584L1209.5 0.000219562L1123.38 0.000212033L1123.12 0.000212011L1037 0.000204481L1036.75 0.000204459L950.627 0.00019693L950.375 0.000196908L864 0.000189357L864 86.3751L864 172.75L864 173.002L864 259.377L864 345.499L864 431.874L864 432.126L864 518.501L950.375 518.501L950.627 518.501L1036.75 518.501L1037 518.501L1123.12 518.501L1123.38 518.501L1209.5 518.501L1209.75 518.501L1295.87 518.501L1296.13 518.501L1382.25 518.501L1382.5 518.501L1468.62 518.501L1468.88 518.501L1555 518.501L1555.25 518.501L1641.37 518.501L1641.63 518.501L1728 518.501ZM1554.95 518.199L1468.93 518.199L1468.93 432.177L1554.95 432.177L1554.95 518.199ZM1382.55 518.199L1468.57 518.199L1468.57 432.177L1382.55 432.177L1382.55 518.199ZM1382.2 518.199L1296.18 518.199L1296.18 432.177L1382.2 432.177L1382.2 518.199ZM1209.8 518.199L1295.82 518.199L1295.82 432.177L1209.8 432.177L1209.8 518.199ZM1209.45 518.199L1123.43 518.199L1123.43 432.176L1209.45 432.177L1209.45 518.199ZM1037.05 518.199L1123.07 518.199L1123.07 432.176L1037.05 432.176L1037.05 518.199ZM1036.7 518.199L950.677 518.199L950.677 432.176L1036.7 432.176L1036.7 518.199ZM864.302 518.199L950.324 518.199L950.324 432.176L864.302 432.176L864.302 518.199ZM1554.95 431.824L1468.93 431.824L1468.93 345.802L1554.95 345.802L1554.95 431.824ZM1382.55 431.824L1468.57 431.824L1468.57 345.802L1391.2 345.802L1382.55 354.454L1382.55 431.824ZM1373.68 345.802L1382.2 354.316L1382.2 431.824L1296.18 431.824L1296.18 345.802L1373.68 345.802ZM1382.2 336.524L1373.3 345.42L1373.33 345.449L1296.18 345.449L1296.18 259.427L1382.2 259.427L1382.2 336.524ZM1391.56 345.449L1391.59 345.42L1382.55 336.385L1382.55 259.427L1468.57 259.427L1468.57 345.449L1391.56 345.449ZM1209.8 431.824L1295.82 431.824L1295.82 345.802L1209.8 345.802L1209.8 431.824ZM1209.45 431.824L1123.43 431.824L1123.43 345.802L1209.45 345.802L1209.45 431.824ZM1037.05 431.824L1123.07 431.824L1123.07 345.802L1037.05 345.802L1037.05 431.824ZM1036.7 431.824L950.677 431.824L950.677 369.667L950.823 369.521L974.543 345.802L1036.7 345.802L1036.7 431.824ZM974.895 345.449L1036.7 345.449L1036.7 267.902L1036.41 268.19L1027.65 259.427L950.677 259.427L950.677 321.172L950.823 321.319L974.691 345.186L974.925 345.42L974.895 345.449ZM950.677 321.639L974.458 345.42L974.428 345.449L959.702 345.449L959.731 345.42L950.677 336.366L950.677 321.639ZM950.325 321.35L950.325 259.427L864.303 259.427L864.303 345.449L926.285 345.449L926.255 345.42L926.489 345.186L950.325 321.35ZM926.752 345.449L926.722 345.42L950.325 321.817L950.325 336.543L941.448 345.42L941.478 345.449L926.752 345.449ZM926.637 345.802L864.302 345.802L864.302 431.824L950.324 431.824L950.324 369.489L926.637 345.802ZM950.324 369.022L927.104 345.802L941.83 345.802L950.324 354.296L950.324 369.022ZM950.677 369.2L974.076 345.802L959.35 345.802L950.677 354.474L950.677 369.2ZM1036.7 250.196L1036.41 249.907L1027.27 259.049L1027.29 259.074L950.677 259.074L950.677 173.052L1036.7 173.052L1036.7 250.196ZM1045.53 259.074L1045.55 259.049L1037.05 250.549L1037.05 173.052L1123.07 173.052L1123.07 259.074L1045.53 259.074ZM1037.05 267.549L1045.17 259.427L1123.07 259.427L1123.07 345.449L1037.05 345.449L1037.05 267.549ZM1727.7 345.449L1641.68 345.449L1641.68 259.427L1727.7 259.427L1727.7 345.449ZM1555.3 345.449L1641.32 345.449L1641.32 259.427L1555.3 259.427L1555.3 345.449ZM1554.95 345.449L1468.93 345.449L1468.93 259.427L1554.95 259.427L1554.95 345.449ZM1209.8 345.449L1295.82 345.449L1295.82 259.427L1209.8 259.427L1209.8 345.449ZM1209.45 345.449L1123.43 345.449L1123.43 259.427L1209.45 259.427L1209.45 345.449ZM1727.7 259.074L1641.68 259.074L1641.68 173.052L1727.7 173.052L1727.7 259.074ZM1555.3 259.074L1641.32 259.074L1641.32 173.052L1579.07 173.052L1579.18 173.164L1578.95 173.397L1555.3 197.044L1555.3 259.074ZM1555.3 196.578L1578.71 173.164L1578.6 173.052L1563.88 173.052L1563.99 173.164L1555.3 181.851L1555.3 196.578ZM1554.95 182.204L1554.95 196.93L1554.85 197.032L1530.98 173.164L1531.09 173.052L1545.82 173.052L1545.7 173.164L1554.85 182.306L1554.95 182.204ZM1554.95 164.125L1554.85 164.022L1546.17 172.7L1531.44 172.7L1554.85 149.296L1554.95 149.398L1554.95 164.125ZM1563.52 172.7L1555.3 164.477L1555.3 149.751L1578.25 172.7L1563.52 172.7ZM1578.72 172.7L1641.32 172.7L1641.32 86.6773L1555.3 86.6773L1555.3 149.284L1578.72 172.7ZM1554.95 148.931L1554.95 86.6773L1468.93 86.6773L1468.93 172.7L1530.98 172.7L1554.61 149.063L1554.85 148.829L1554.95 148.931ZM1530.62 173.052L1468.93 173.052L1468.93 259.074L1554.95 259.074L1554.95 197.397L1554.85 197.499L1554.61 197.265L1530.75 173.397L1530.51 173.164L1530.62 173.052ZM1382.55 259.074L1468.57 259.074L1468.57 173.052L1382.55 173.052L1382.55 259.074ZM1382.2 259.074L1296.18 259.074L1296.18 173.052L1382.2 173.052L1382.2 259.074ZM1209.8 259.074L1295.82 259.074L1295.82 173.052L1209.8 173.052L1209.8 259.074ZM1209.45 259.074L1123.43 259.074L1123.43 173.052L1209.45 173.052L1209.45 259.074ZM864.302 259.074L950.325 259.074L950.325 173.052L864.302 173.052L864.302 259.074ZM1727.7 172.7L1641.68 172.7L1641.68 86.6773L1727.7 86.6773L1727.7 172.7ZM1382.55 172.7L1468.57 172.7L1468.57 86.6773L1382.55 86.6773L1382.55 172.7ZM1382.2 172.7L1296.18 172.7L1296.18 86.6773L1382.2 86.6773L1382.2 172.7ZM1209.8 172.7L1295.82 172.7L1295.82 86.6773L1209.8 86.6773L1209.8 172.7ZM1209.45 172.7L1123.43 172.7L1123.43 86.6773L1209.45 86.6773L1209.45 172.7ZM1037.05 172.699L1123.07 172.7L1123.07 86.6773L1037.05 86.6773L1037.05 172.699ZM1036.7 172.699L950.677 172.699L950.677 86.6773L1036.7 86.6773L1036.7 172.699ZM864.302 172.699L950.325 172.699L950.325 86.6773L864.302 86.6773L864.302 172.699ZM1727.7 86.3247L1641.68 86.3247L1641.68 0.302454L1727.7 0.302462L1727.7 86.3247ZM1555.3 86.3247L1641.32 86.3247L1641.32 0.302454L1555.3 0.302447L1555.3 86.3247ZM1554.95 86.3247L1468.93 86.3247L1468.93 0.302439L1554.95 0.302447L1554.95 86.3247ZM1382.55 86.3247L1468.57 86.3247L1468.57 0.302439L1382.55 0.302432L1382.55 86.3247ZM1382.2 86.3247L1296.18 86.3247L1296.18 0.302424L1382.2 0.302432L1382.2 86.3247ZM1209.8 86.3247L1295.82 86.3247L1295.82 0.302424L1209.8 0.302417L1209.8 86.3247ZM1209.45 86.3247L1123.43 86.3247L1123.43 0.302409L1209.45 0.302417L1209.45 86.3247ZM1037.05 86.3247L1123.07 86.3247L1123.07 0.302409L1037.05 0.302401L1037.05 86.3247ZM1036.7 86.3247L950.677 86.3246L950.677 0.302394L1036.7 0.302401L1036.7 86.3247ZM864.303 86.3246L950.325 86.3246L950.325 0.302394L864.303 0.302386L864.303 86.3246Z" fill="url(#paint2_radial_977_815)" fill-opacity="0.6"/>
<path fill-rule="evenodd" clip-rule="evenodd" d="M777.676 518.199L863.698 518.199L863.698 432.176L786.588 432.176L777.676 441.088L777.676 518.199ZM768.526 432.176L777.323 440.973L777.323 518.199L691.301 518.199L691.301 432.176L768.526 432.176ZM777.323 423.158L768.657 431.824L691.301 431.824L691.301 345.802L777.323 345.802L777.323 423.158ZM786.456 431.824L777.676 423.043L777.676 345.802L863.698 345.802L863.698 431.824L786.456 431.824ZM864 518.501L864 432.126L864 431.874L864 345.751L864 345.499L864 259.377L864 259.125L864 173.002L864 172.75L864 86.6268L864 86.375L864 0.00014282L777.625 0.000135269L777.373 0.000135247L691.251 0.000127718L690.999 0.000127696L604.876 0.000120167L604.624 0.000120145L518.501 0.000112616L518.249 0.000112594L432.126 0.000105065L431.874 0.000105042L345.751 9.75134e-05L345.5 9.74914e-05L259.376 8.99622e-05L259.125 8.99402e-05L173.002 8.24111e-05L172.75 8.23891e-05L86.627 7.486e-05L86.3752 7.4838e-05L0.000348372 6.72869e-05L7.22013e-05 86.3749L6.46501e-05 172.75L6.46281e-05 173.002L5.7077e-05 259.376L4.95479e-05 345.499L4.19968e-05 431.874L4.19748e-05 432.126L3.44236e-05 518.501L86.3752 518.501L86.6267 518.501L172.75 518.501L173.002 518.501L259.125 518.501L259.376 518.501L345.5 518.501L345.751 518.501L431.874 518.501L432.126 518.501L518.249 518.501L518.501 518.501L604.624 518.501L604.876 518.501L690.999 518.501L691.251 518.501L777.373 518.501L777.625 518.501L864 518.501ZM690.948 518.199L604.926 518.199L604.926 432.176L690.948 432.176L690.948 518.199ZM518.551 518.199L604.573 518.199L604.573 432.176L518.551 432.176L518.551 518.199ZM518.199 518.199L432.176 518.199L432.176 432.176L518.199 432.176L518.199 518.199ZM345.802 518.199L431.824 518.199L431.824 432.176L345.802 432.176L345.802 518.199ZM345.449 518.199L259.427 518.199L259.427 432.176L345.449 432.176L345.449 518.199ZM173.052 518.199L259.074 518.199L259.074 432.176L173.052 432.176L173.052 518.199ZM172.7 518.199L86.6774 518.199L86.6774 432.176L172.7 432.176L172.7 518.199ZM0.302231 518.199L86.3245 518.199L86.3245 432.176L0.302239 432.176L0.302231 518.199ZM690.948 431.824L604.926 431.824L604.926 345.802L690.948 345.802L690.948 431.824ZM518.551 431.824L604.573 431.824L604.573 345.802L527.204 345.802L518.551 354.454L518.551 431.824ZM509.684 345.802L518.199 354.316L518.199 431.824L432.176 431.824L432.176 345.802L509.684 345.802ZM518.199 336.524L509.303 345.42L509.332 345.449L432.176 345.449L432.176 259.427L518.199 259.427L518.199 336.524ZM527.556 345.449L527.586 345.42L518.551 336.385L518.551 259.427L604.573 259.427L604.573 345.449L527.556 345.449ZM345.802 431.824L431.824 431.824L431.824 345.802L345.802 345.801L345.802 431.824ZM345.449 431.824L259.427 431.824L259.427 345.801L345.449 345.801L345.449 431.824ZM173.052 431.824L259.074 431.824L259.074 345.801L173.052 345.801L173.052 431.824ZM172.7 431.824L86.6774 431.824L86.6774 369.667L86.8233 369.521L110.543 345.801L172.7 345.801L172.7 431.824ZM110.895 345.449L172.699 345.449L172.699 267.902L172.411 268.19L163.647 259.427L86.6771 259.427L86.6771 321.172L86.8233 321.318L110.691 345.186L110.925 345.42L110.895 345.449ZM86.6771 321.639L110.458 345.42L110.428 345.449L95.7019 345.449L95.7314 345.42L86.6771 336.365L86.6771 321.639ZM86.3248 321.35L86.3248 259.427L0.302523 259.427L0.302515 345.449L62.2848 345.449L62.2553 345.42L62.4887 345.186L86.3248 321.35ZM62.7516 345.449L62.7221 345.42L86.3248 321.817L86.3248 336.543L77.4483 345.42L77.4778 345.449L62.7516 345.449ZM62.6372 345.801L0.302247 345.801L0.302239 431.824L86.3245 431.824L86.3245 369.489L62.6372 345.801ZM86.3245 369.022L63.1039 345.801L77.8301 345.801L86.3245 354.296L86.3245 369.022ZM86.6774 369.2L110.076 345.801L95.3496 345.801L86.6774 354.474L86.6774 369.2ZM172.7 250.196L172.411 249.907L163.269 259.049L163.294 259.074L86.6774 259.074L86.6774 173.052L172.7 173.052L172.7 250.196ZM181.527 259.074L181.552 259.049L173.052 250.549L173.052 173.052L259.074 173.052L259.074 259.074L181.527 259.074ZM173.052 267.549L181.174 259.427L259.074 259.427L259.074 345.449L173.052 345.449L173.052 267.549ZM863.698 345.449L777.676 345.449L777.676 259.427L863.698 259.427L863.698 345.449ZM691.301 345.449L777.323 345.449L777.323 259.427L691.301 259.427L691.301 345.449ZM690.948 345.449L604.926 345.449L604.926 259.427L690.948 259.427L690.948 345.449ZM345.801 345.449L431.824 345.449L431.824 259.427L345.801 259.427L345.801 345.449ZM345.449 345.449L259.427 345.449L259.427 259.427L345.449 259.427L345.449 345.449ZM863.698 259.074L777.676 259.074L777.676 173.052L863.698 173.052L863.698 259.074ZM691.301 259.074L777.323 259.074L777.323 173.052L715.069 173.052L715.181 173.164L714.948 173.397L691.301 197.044L691.301 259.074ZM691.301 196.577L714.714 173.164L714.602 173.052L699.876 173.052L699.988 173.164L691.301 181.851L691.301 196.577ZM690.948 182.203L690.948 196.93L690.846 197.032L666.979 173.164L667.09 173.052L681.817 173.052L681.705 173.164L690.846 182.305L690.948 182.203ZM690.948 164.124L690.846 164.022L682.169 172.699L667.443 172.699L690.846 149.296L690.948 149.398L690.948 164.124ZM699.523 172.699L691.301 164.477L691.301 149.75L714.25 172.699L699.523 172.699ZM714.717 172.699L777.323 172.699L777.323 86.6772L691.301 86.6772L691.301 149.284L714.717 172.699ZM690.948 148.931L690.948 86.6772L604.926 86.6772L604.926 172.699L666.976 172.699L690.613 149.063L690.846 148.829L690.948 148.931ZM666.624 173.052L604.926 173.052L604.926 259.074L690.948 259.074L690.948 197.397L690.846 197.499L690.613 197.265L666.745 173.397L666.512 173.164L666.624 173.052ZM518.551 259.074L604.573 259.074L604.573 173.052L518.551 173.052L518.551 259.074ZM518.199 259.074L432.176 259.074L432.176 173.052L518.199 173.052L518.199 259.074ZM345.802 259.074L431.824 259.074L431.824 173.052L345.802 173.052L345.802 259.074ZM345.449 259.074L259.427 259.074L259.427 173.052L345.449 173.052L345.449 259.074ZM0.302254 259.074L86.3245 259.074L86.3245 173.052L0.302262 173.052L0.302254 259.074ZM863.698 172.699L777.676 172.699L777.676 86.6772L863.698 86.6772L863.698 172.699ZM518.551 172.699L604.573 172.699L604.574 86.6772L518.551 86.6772L518.551 172.699ZM518.199 172.699L432.176 172.699L432.176 86.6772L518.199 86.6772L518.199 172.699ZM345.802 172.699L431.824 172.699L431.824 86.6772L345.802 86.6772L345.802 172.699ZM345.449 172.699L259.427 172.699L259.427 86.6772L345.449 86.6772L345.449 172.699ZM173.052 172.699L259.074 172.699L259.074 86.6772L173.052 86.6772L173.052 172.699ZM172.7 172.699L86.6774 172.699L86.6774 86.6772L172.7 86.6772L172.7 172.699ZM0.302262 172.699L86.3245 172.699L86.3245 86.6772L0.302269 86.6771L0.302262 172.699ZM863.698 86.3246L777.676 86.3246L777.676 0.302332L863.698 0.30234L863.698 86.3246ZM691.301 86.3246L777.323 86.3246L777.323 0.302332L691.301 0.302325L691.301 86.3246ZM690.948 86.3246L604.926 86.3246L604.926 0.302317L690.948 0.302325L690.948 86.3246ZM518.551 86.3246L604.574 86.3246L604.574 0.302317L518.551 0.30231L518.551 86.3246ZM518.199 86.3246L432.176 86.3246L432.176 0.302302L518.199 0.30231L518.199 86.3246ZM345.802 86.3245L431.824 86.3246L431.824 0.302302L345.802 0.302294L345.802 86.3245ZM345.449 86.3245L259.427 86.3245L259.427 0.302287L345.449 0.302294L345.449 86.3245ZM173.052 86.3245L259.074 86.3245L259.074 0.302287L173.052 0.302279L173.052 86.3245ZM172.7 86.3245L86.6774 86.3245L86.6774 0.302272L172.7 0.302279L172.7 86.3245ZM0.302538 86.3245L86.3248 86.3245L86.3248 0.302272L0.302545 0.302264L0.302538 86.3245Z" fill="url(#paint3_radial_977_815)" fill-opacity="0.6"/>
<defs>
<radialGradient id="paint0_radial_977_815" cx="0" cy="0" r="1" gradientUnits="userSpaceOnUse" gradientTransform="translate(432 227.481) rotate(90) scale(744.192 1240.08)">
<stop stop-color="#2A2A2A"/>
<stop offset="1" stop-color="white" stop-opacity="0"/>
</radialGradient>
<radialGradient id="paint1_radial_977_815" cx="0" cy="0" r="1" gradientUnits="userSpaceOnUse" gradientTransform="translate(1296 227.481) rotate(90) scale(744.192 1240.08)">
<stop stop-color="#2A2A2A"/>
<stop offset="1" stop-color="white" stop-opacity="0"/>
</radialGradient>
<radialGradient id="paint2_radial_977_815" cx="0" cy="0" r="1" gradientUnits="userSpaceOnUse" gradientTransform="translate(1296 809.521) rotate(-90) scale(744.192 1240.08)">
<stop stop-color="#2A2A2A"/>
<stop offset="1" stop-color="white" stop-opacity="0"/>
</radialGradient>
<radialGradient id="paint3_radial_977_815" cx="0" cy="0" r="1" gradientUnits="userSpaceOnUse" gradientTransform="translate(432 809.521) rotate(-90) scale(744.192 1240.08)">
<stop stop-color="#2A2A2A"/>
<stop offset="1" stop-color="white" stop-opacity="0"/>
</radialGradient>
</defs>
</svg>
