<svg width="115" height="24" viewBox="0 0 115 24" fill="none" xmlns="http://www.w3.org/2000/svg">
<path fill-rule="evenodd" clip-rule="evenodd" d="M10.6407 12.8563C11.0495 12.4476 10.76 11.7487 10.1819 11.7487L0.648847 11.7485C0.2905 11.7485 0 12.039 0 12.3973V22.8482C0 23.2066 0.290493 23.4971 0.648835 23.4971H5.22509C5.58342 23.4971 5.87391 23.2066 5.87393 22.8482L5.87411 17.8916C5.87411 17.7195 5.94247 17.5545 6.06415 17.4328L10.6407 12.8563Z" fill="white"/>
<path fill-rule="evenodd" clip-rule="evenodd" d="M12.8559 10.6408C12.4471 11.0495 12.7366 11.7484 13.3147 11.7484L22.8477 11.7486C23.206 11.7486 23.4965 11.4581 23.4965 11.0997V0.648834C23.4965 0.290493 23.206 0 22.8477 0H18.2714C17.9131 0 17.6226 0.290479 17.6226 0.648812L17.6224 5.60538C17.6224 5.77745 17.5541 5.94247 17.4324 6.06415L12.8559 10.6408Z" fill="white"/>
<path fill-rule="evenodd" clip-rule="evenodd" d="M16.515 1.10763C16.9238 0.698889 16.6343 0 16.0562 0H0.648834C0.290483 0 -1.28844e-05 0.290508 4.28605e-10 0.648859L0.000178217 5.60539C0.000184404 5.77746 0.0685382 5.94247 0.190205 6.06415L4.76651 10.6407C5.17524 11.0495 5.87413 10.76 5.87415 10.1819L5.87429 6.52293C5.8743 6.1646 6.16479 5.87412 6.52312 5.87412H11.4798C11.6519 5.87412 11.8169 5.80576 11.9386 5.68408L16.515 1.10763Z" fill="white"/>
<path d="M17.6225 13.3155C17.6226 12.7375 18.3215 12.448 18.7302 12.8568L23.3065 17.4332C23.4281 17.5549 23.4965 17.7199 23.4965 17.892L23.4967 22.8486C23.4967 23.207 23.2062 23.4975 22.8479 23.4975H7.44044C6.86239 23.4975 6.57287 22.7986 6.98161 22.3898L11.5582 17.8133C11.6648 17.7067 11.7826 17.6078 11.9534 17.6264C13.2847 17.7708 14.0287 18.5567 14.2294 19.9133C14.3899 18.5991 15.0791 17.776 16.4999 17.6321C16.4723 17.6295 16.5393 17.6353 16.5122 17.6321L16.9736 17.6232C17.3319 17.6232 17.6224 17.3328 17.6224 16.9745L17.6225 13.3155Z" fill="white"/>
<path d="M14.2323 16.7617C14.3007 16.9783 14.4014 17.1644 14.5383 17.3144C14.6712 17.46 14.8356 17.5685 15.0315 17.6378C14.8244 17.7068 14.6543 17.8147 14.5197 17.9598C14.3848 18.1053 14.2888 18.2847 14.2263 18.492C14.1564 18.2765 14.0527 18.0938 13.9126 17.9477C13.7762 17.8054 13.608 17.7008 13.4094 17.6335C13.6116 17.564 13.7839 17.4576 13.9226 17.3124C14.0635 17.1648 14.1667 16.9806 14.2323 16.7617Z" fill="white"/>
<path d="M27.7798 19.27C27.7798 19.1559 27.8159 19.0448 27.8829 18.9524L36.9568 6.44692C37.6084 5.55835 38.7858 4.93267 39.8357 4.40654C40.0507 4.29878 40.1359 4.03623 40.0247 3.823C39.9152 3.61311 39.657 3.53143 39.4467 3.64001C38.4141 4.1729 37.1858 4.77838 36.0891 4.77838H28.6542C28.3556 4.77838 28.1135 4.5363 28.1135 4.23767V0.647153C28.1135 0.348532 28.3556 0.106451 28.6542 0.106451H44.1248C44.4234 0.106451 44.6655 0.348531 44.6655 0.647153V4.7562C44.6655 4.76845 44.6555 4.77838 44.6433 4.77838C44.6363 4.77838 44.6296 4.78172 44.6254 4.78738L35.5218 17.1256C34.8363 18.0198 33.6183 18.6477 32.5812 19.1759C32.3798 19.2785 32.2995 19.5241 32.4006 19.7263C32.5025 19.9303 32.7503 20.0127 32.954 19.9104C34.0092 19.3807 35.2226 18.7941 36.3561 18.7941H44.1248C44.4234 18.7941 44.6655 19.0362 44.6655 19.3348V22.9254C44.6655 23.224 44.4234 23.4661 44.1248 23.4661H28.3205C28.0219 23.4661 27.7798 23.224 27.7798 22.9254V19.27Z" fill="white"/>
<path d="M54.5667 24C47.4921 24 43.6878 19.9955 43.6878 15.0232C43.6878 10.051 47.8258 6.28006 53.6991 6.28006C59.7726 6.28006 63.5101 10.3847 63.4767 15.0232C63.4767 15.2521 63.4897 15.6497 63.4914 15.9814C63.4928 16.254 63.2721 16.4582 62.9994 16.4582H49.9683C49.6697 16.4582 49.4234 16.7021 49.4799 16.9953C49.7697 18.5007 51.2701 20.0956 54.0995 20.0956C55.8571 20.0956 57.0425 19.5234 57.5483 18.959C57.6823 18.8095 57.8626 18.694 58.0634 18.694H62.3909C62.7507 18.694 63.0054 19.0375 62.8511 19.3626C61.9748 21.2086 59.4056 24 54.5667 24ZM49.4742 13.0168C49.423 13.311 49.6697 13.5549 49.9683 13.5549H57.4298C57.7285 13.5549 57.9747 13.3115 57.9359 13.0154C57.6924 11.1602 56.1804 9.85075 53.8326 9.85075C51.4734 9.85075 49.7722 11.3036 49.4742 13.0168Z" fill="white"/>
<path d="M69.1675 7.81513C70.8915 6.62404 71.7326 6.77509 74.4002 6.79783C74.6988 6.80038 74.9412 7.04232 74.9412 7.34094V10.5977C74.9412 10.8964 74.6984 11.1377 74.3999 11.1442C70.3911 11.2316 67.3321 12.3512 67.3321 16.7919V22.9254C67.3321 23.224 67.09 23.4661 66.7914 23.4661H63.2009C62.9023 23.4661 62.6602 23.224 62.6602 22.9254V7.32133C62.6602 7.02271 62.9023 6.78063 63.2009 6.78063H67.1319C67.2425 6.78063 67.3321 6.87027 67.3321 6.98085C67.3321 8.3179 66.6957 9.84865 66.1283 11.1195C66.0378 11.3224 66.1274 11.5602 66.3296 11.6521C66.5329 11.7445 66.7723 11.6542 66.8616 11.4495C67.4227 10.1637 68.0739 8.57458 69.1675 7.81513Z" fill="white"/>
<path d="M81.5995 7.6149C82.9343 6.5804 84.436 6.28006 86.505 6.28006C89.8755 6.28006 92.4784 8.21558 92.4784 12.0199V22.9254C92.4784 23.224 92.2363 23.4661 91.9377 23.4661H88.3472C88.0485 23.4661 87.8065 23.224 87.8065 22.9254V15.3903C87.8065 12.3536 86.7386 10.9854 84.4694 10.9854C82.0333 10.9854 79.9309 12.3536 79.9309 15.3903V22.9254C79.9309 23.224 79.6888 23.4661 79.3902 23.4661H75.7997C75.5011 23.4661 75.259 23.224 75.259 22.9254V7.32133C75.259 7.02271 75.5011 6.78063 75.7997 6.78063H79.7307C79.8413 6.78063 79.9309 6.87027 79.9309 6.98085C79.9309 8.3187 79.3214 9.87818 78.8093 11.2049C78.7278 11.4159 78.8326 11.6524 79.0431 11.7349C79.2564 11.8183 79.4967 11.7119 79.5732 11.496C80.0539 10.1396 80.5364 8.43496 81.5995 7.6149Z" fill="white"/>
<path d="M101.929 16.1912L97.5821 23.21C97.4835 23.3692 97.3096 23.4661 97.1224 23.4661H92.7343C92.3011 23.4661 92.0438 22.982 92.2861 22.6229L99.7526 11.5592C99.8774 11.3742 99.8758 11.1315 99.7485 10.9483L92.8075 0.955615C92.5585 0.597077 92.815 0.106451 93.2516 0.106451H97.6852C97.8749 0.106451 98.0506 0.205801 98.1485 0.368269L101.929 6.64714C102.393 7.43017 102.403 8.49044 102.398 9.43368C102.396 9.66406 102.583 9.85075 102.813 9.85075C103.043 9.85075 103.229 9.66406 103.23 9.43368C103.232 8.49043 103.271 7.43017 103.764 6.64714L107.71 0.359742C107.809 0.202131 107.982 0.106451 108.168 0.106451H112.62C113.054 0.106451 113.311 0.592259 113.067 0.95123L105.978 11.3752C105.851 11.5621 105.853 11.8084 105.984 11.9926L113.535 22.612C113.79 22.97 113.534 23.4661 113.094 23.4661H108.731C108.547 23.4661 108.376 23.3724 108.276 23.2175L103.764 16.1912C103.271 15.4082 103.232 14.3479 103.23 13.4047C103.229 13.1743 103.043 12.9876 102.813 12.9876C102.583 12.9876 102.396 13.1743 102.398 13.4047C102.403 14.3544 102.393 15.4368 101.929 16.1912Z" fill="white"/>
</svg>
