<svg width="40" height="40" viewBox="0 0 40 40" fill="none" xmlns="http://www.w3.org/2000/svg">
<path d="M5 20C12.5 20 20 12.5 20 5C20 12.5 27.5 20 35 20C27.5 20 20 27.5 20 35C20 27.5 12.5 20 5 20Z" fill="#E9D1FF" stroke="#E9D1FF" stroke-width="1.875" stroke-linejoin="round"/>
<path d="M3.3335 32.5C4.72238 32.5 7.50016 29.7222 7.50016 28.3334C7.50016 29.7222 10.2779 32.5 11.6668 32.5C10.2779 32.5 7.50016 35.2779 7.50016 36.6667C7.50016 35.2779 4.72238 32.5 3.3335 32.5Z" fill="#00C2FF" stroke="#00C2FF" stroke-width="1.875" stroke-linejoin="round"/>
<path d="M26.6665 8.33337C28.3332 8.33337 31.6665 5.00004 31.6665 3.33337C31.6665 5.00004 34.9998 8.33337 36.6665 8.33337C34.9998 8.33337 31.6665 11.6667 31.6665 13.3334C31.6665 11.6667 28.3332 8.33337 26.6665 8.33337Z" fill="#00C2FF" stroke="#00C2FF" stroke-width="1.875" stroke-linejoin="round"/>
</svg>
