<svg width="48" height="48" viewBox="0 0 48 48" fill="none" xmlns="http://www.w3.org/2000/svg">
<path d="M29 16C29 10.4772 24.5228 6 19 6C13.4772 6 9 10.4772 9 16C9 21.5228 13.4772 26 19 26C24.5228 26 29 21.5228 29 16Z" stroke="#C68FF9" stroke-width="3" stroke-linecap="round" stroke-linejoin="round"/>
<path d="M5 40C5 32.268 11.268 26 19 26C21.1472 26 23.1814 26.4834 25 27.3472" stroke="#C68FF9" stroke-width="3" stroke-linecap="round" stroke-linejoin="round"/>
<path d="M31.1 30.1L40.9 39.9M43 35C43 31.134 39.866 28 36 28C32.134 28 29 31.134 29 35C29 38.866 32.134 42 36 42C39.866 42 43 38.866 43 35Z" stroke="#C68FF9" stroke-width="3" stroke-linecap="round" stroke-linejoin="round"/>
</svg>
